<mxfile host="app.diagrams.net" agent="Mozilla/5.0 (Windows NT 10.0; Win64; x64; rv:132.0) Gecko/20100101 Firefox/132.0" version="24.8.6">
  <diagram name="Page-1" id="TqFg86RpM01elPxKAWNB">
    <mxGraphModel dx="1050" dy="538" grid="1" gridSize="10" guides="1" tooltips="1" connect="1" arrows="1" fold="1" page="1" pageScale="1" pageWidth="850" pageHeight="1100" math="0" shadow="0">
      <root>
        <mxCell id="0" />
        <mxCell id="1" parent="0" />
        <mxCell id="gqWH_2o4nvbjPzkIkvC--1" value="&lt;div&gt;Player enters floor from ladder&lt;/div&gt;&lt;div&gt;&lt;br&gt;&lt;/div&gt;" style="rounded=0;whiteSpace=wrap;html=1;" parent="1" vertex="1">
          <mxGeometry x="240" y="40" width="160" height="80" as="geometry" />
        </mxCell>
        <mxCell id="gqWH_2o4nvbjPzkIkvC--2" value="" style="endArrow=classic;html=1;rounded=0;" parent="1" edge="1">
          <mxGeometry width="50" height="50" relative="1" as="geometry">
            <mxPoint x="80" y="80" as="sourcePoint" />
            <mxPoint x="80" y="200" as="targetPoint" />
          </mxGeometry>
        </mxCell>
        <mxCell id="gqWH_2o4nvbjPzkIkvC--3" value="Player Finds and opens a chest" style="rounded=0;whiteSpace=wrap;html=1;" parent="1" vertex="1">
          <mxGeometry y="200" width="160" height="80" as="geometry" />
        </mxCell>
        <mxCell id="gqWH_2o4nvbjPzkIkvC--4" value="Player receives a random item from a pool of items" style="rounded=0;whiteSpace=wrap;html=1;" parent="1" vertex="1">
          <mxGeometry y="360" width="160" height="80" as="geometry" />
        </mxCell>
        <mxCell id="gqWH_2o4nvbjPzkIkvC--5" value="" style="endArrow=classic;html=1;rounded=0;entryX=0.5;entryY=0;entryDx=0;entryDy=0;" parent="1" target="gqWH_2o4nvbjPzkIkvC--4" edge="1">
          <mxGeometry width="50" height="50" relative="1" as="geometry">
            <mxPoint x="80" y="280" as="sourcePoint" />
            <mxPoint x="130" y="230" as="targetPoint" />
          </mxGeometry>
        </mxCell>
        <mxCell id="gqWH_2o4nvbjPzkIkvC--6" value="Player makes contact with an enemy" style="rounded=0;whiteSpace=wrap;html=1;" parent="1" vertex="1">
          <mxGeometry x="240" y="360" width="160" height="80" as="geometry" />
        </mxCell>
        <mxCell id="gqWH_2o4nvbjPzkIkvC--7" value="Player encounters an enemy" style="rounded=0;whiteSpace=wrap;html=1;" parent="1" vertex="1">
          <mxGeometry x="240" y="200" width="160" height="80" as="geometry" />
        </mxCell>
        <mxCell id="gqWH_2o4nvbjPzkIkvC--8" value="" style="endArrow=classic;html=1;rounded=0;entryX=0.5;entryY=0;entryDx=0;entryDy=0;" parent="1" target="gqWH_2o4nvbjPzkIkvC--6" edge="1">
          <mxGeometry width="50" height="50" relative="1" as="geometry">
            <mxPoint x="320" y="280" as="sourcePoint" />
            <mxPoint x="370" y="230" as="targetPoint" />
          </mxGeometry>
        </mxCell>
        <mxCell id="gqWH_2o4nvbjPzkIkvC--9" value="" style="endArrow=classic;html=1;rounded=0;entryX=0.5;entryY=0;entryDx=0;entryDy=0;" parent="1" target="gqWH_2o4nvbjPzkIkvC--7" edge="1">
          <mxGeometry width="50" height="50" relative="1" as="geometry">
            <mxPoint x="320" y="120" as="sourcePoint" />
            <mxPoint x="319.5" y="180" as="targetPoint" />
          </mxGeometry>
        </mxCell>
        <mxCell id="gqWH_2o4nvbjPzkIkvC--10" value="" style="endArrow=none;html=1;rounded=0;" parent="1" edge="1">
          <mxGeometry width="50" height="50" relative="1" as="geometry">
            <mxPoint x="80" y="79.5" as="sourcePoint" />
            <mxPoint x="240" y="79.5" as="targetPoint" />
          </mxGeometry>
        </mxCell>
        <mxCell id="gqWH_2o4nvbjPzkIkvC--11" value="A fight begins" style="rounded=0;whiteSpace=wrap;html=1;" parent="1" vertex="1">
          <mxGeometry x="240" y="520" width="160" height="80" as="geometry" />
        </mxCell>
        <mxCell id="gqWH_2o4nvbjPzkIkvC--12" value="" style="endArrow=classic;html=1;rounded=0;entryX=0.5;entryY=0;entryDx=0;entryDy=0;" parent="1" target="gqWH_2o4nvbjPzkIkvC--11" edge="1">
          <mxGeometry width="50" height="50" relative="1" as="geometry">
            <mxPoint x="320" y="440" as="sourcePoint" />
            <mxPoint x="370" y="390" as="targetPoint" />
          </mxGeometry>
        </mxCell>
        <mxCell id="gqWH_2o4nvbjPzkIkvC--13" value="Player finds ladder to next level" style="rounded=0;whiteSpace=wrap;html=1;" parent="1" vertex="1">
          <mxGeometry x="480" y="200" width="160" height="80" as="geometry" />
        </mxCell>
        <mxCell id="DtkDUykOdFtk7-KuguxW-1" value="" style="endArrow=none;html=1;rounded=0;" edge="1" parent="1">
          <mxGeometry width="50" height="50" relative="1" as="geometry">
            <mxPoint x="400" y="80" as="sourcePoint" />
            <mxPoint x="560" y="80" as="targetPoint" />
          </mxGeometry>
        </mxCell>
        <mxCell id="DtkDUykOdFtk7-KuguxW-2" value="" style="endArrow=classic;html=1;rounded=0;entryX=0.5;entryY=0;entryDx=0;entryDy=0;" edge="1" parent="1" target="gqWH_2o4nvbjPzkIkvC--13">
          <mxGeometry width="50" height="50" relative="1" as="geometry">
            <mxPoint x="560" y="80" as="sourcePoint" />
            <mxPoint x="610" y="30" as="targetPoint" />
          </mxGeometry>
        </mxCell>
        <mxCell id="DtkDUykOdFtk7-KuguxW-3" value="Player interacts with ladder and is prompted with if they would like to go down or not" style="rounded=0;whiteSpace=wrap;html=1;" vertex="1" parent="1">
          <mxGeometry x="480" y="360" width="160" height="80" as="geometry" />
        </mxCell>
        <mxCell id="DtkDUykOdFtk7-KuguxW-4" value="Player goes down to the next level" style="rounded=0;whiteSpace=wrap;html=1;" vertex="1" parent="1">
          <mxGeometry x="480" y="520" width="160" height="80" as="geometry" />
        </mxCell>
        <mxCell id="DtkDUykOdFtk7-KuguxW-5" value="Player stays on the current floor" style="rounded=0;whiteSpace=wrap;html=1;" vertex="1" parent="1">
          <mxGeometry x="680" y="520" width="160" height="80" as="geometry" />
        </mxCell>
        <mxCell id="DtkDUykOdFtk7-KuguxW-6" value="" style="endArrow=classic;html=1;rounded=0;entryX=0.5;entryY=0;entryDx=0;entryDy=0;" edge="1" parent="1" target="DtkDUykOdFtk7-KuguxW-4">
          <mxGeometry width="50" height="50" relative="1" as="geometry">
            <mxPoint x="560" y="440" as="sourcePoint" />
            <mxPoint x="610" y="390" as="targetPoint" />
          </mxGeometry>
        </mxCell>
        <mxCell id="DtkDUykOdFtk7-KuguxW-7" value="" style="endArrow=classic;html=1;rounded=0;entryX=0;entryY=0;entryDx=0;entryDy=0;" edge="1" parent="1" target="DtkDUykOdFtk7-KuguxW-5">
          <mxGeometry width="50" height="50" relative="1" as="geometry">
            <mxPoint x="640" y="440" as="sourcePoint" />
            <mxPoint x="690" y="390" as="targetPoint" />
          </mxGeometry>
        </mxCell>
        <mxCell id="DtkDUykOdFtk7-KuguxW-8" value="&lt;div&gt;(Yes)&lt;/div&gt;" style="text;html=1;align=center;verticalAlign=middle;resizable=0;points=[];autosize=1;strokeColor=none;fillColor=none;" vertex="1" parent="1">
          <mxGeometry x="505" y="468" width="50" height="30" as="geometry" />
        </mxCell>
        <mxCell id="DtkDUykOdFtk7-KuguxW-9" value="(No)" style="text;html=1;align=center;verticalAlign=middle;resizable=0;points=[];autosize=1;strokeColor=none;fillColor=none;" vertex="1" parent="1">
          <mxGeometry x="645" y="458" width="50" height="30" as="geometry" />
        </mxCell>
      </root>
    </mxGraphModel>
  </diagram>
</mxfile>
